<svg id="Layer_1" data-name="Layer 1" xmlns="http://www.w3.org/2000/svg" viewBox="0 0 68.38 34.75"><defs><style>.cls-1{font-size:6.81px;font-family:Orkney-Bold, Orkney;font-weight:700;}.cls-1,.cls-13,.cls-5,.cls-6{fill:#19b3b1;}.cls-2{font-size:4.16px;font-family:Orkney-Light, Orkney;}.cls-14,.cls-2,.cls-3,.cls-4{fill:#858787;}.cls-13,.cls-4{opacity:0.95;}.cls-11,.cls-6,.cls-8,.cls-9{opacity:0.5;}.cls-7,.cls-8{fill:#e7b521;}.cls-10,.cls-9{fill:#364f9c;}.cls-11,.cls-12{fill:#e6254a;}.cls-14{font-size:4.95px;font-family:GESSTwoLight-Light, GE SS Two;}</style></defs><title>Artboard 1 copy</title><text class="cls-1" transform="translate(3.37 18.17) scale(1.09 1)">KAFAAH</text><text class="cls-2" transform="translate(3.71 23.56)">TECHNOLOGY.Co</text><polygon class="cls-3" points="49.88 13.06 53.21 13.06 58.94 3.13 55.61 3.13 49.88 13.06"/><polygon class="cls-4" points="49.88 13.06 53.21 13.06 58.94 22.99 55.61 22.99 49.88 13.06"/><polygon class="cls-5" points="63.32 8.61 60.75 13.06 65.88 13.06 63.32 8.61"/><polygon class="cls-6" points="63.32 17.51 60.75 13.06 65.88 13.06 63.32 17.51"/><polygon class="cls-7" points="60.15 3.12 57.59 7.57 62.71 7.57 60.15 3.12"/><polygon class="cls-8" points="60.15 12.02 57.59 7.57 62.71 7.57 60.15 12.02"/><polygon class="cls-9" points="56.98 8.61 54.41 13.06 59.53 13.06 56.98 8.61"/><polygon class="cls-10" points="56.98 17.51 54.41 13.06 59.53 13.06 56.98 17.51"/><polygon class="cls-11" points="60.15 14.1 57.59 18.55 62.71 18.55 60.15 14.1"/><polygon class="cls-12" points="60.15 23 57.59 18.55 62.71 18.55 60.15 23"/><polygon class="cls-5" points="42.97 13.08 48.68 13.08 54.38 3.13 48.68 3.13 42.97 13.08"/><polygon class="cls-13" points="42.97 13.08 48.68 13.08 54.38 23.02 48.68 23.02 42.97 13.08"/><text class="cls-14" transform="translate(2.83 29.98)">ةدودحملا ةينقتلا ةءافك ةكرـش</text></svg>